/* XPM */

static const char *
icon_on_data[] = {
  /* width height num_colors chars_per_pixel x_hot y_hot */
  "24 24 6 1 0 0",

  /* colors */
  ". s symbol1 c #000000 m black",
  "# s symbol2 c #aaaaaa m white",
  "a s symbol3 c #ffffff m white",
  "b s symbol4 c #bbbbbb m white",
  "c s symbol5 c #444444 m black",
  "  s mask c none",

  /* pixels */
  "                        ",
  "                        ",
  "                  ..... ",
  "                 ...... ",
  "                 ...... ",
  "                ....... ",
  "               ........ ",
  "               .......  ",
  "        ............    ",
  "       ..##........     ",
  "      ..####.....       ",
  "     ....####....       ",
  "   .......####...       ",
  "   ........##.......... ",
  "  ..........#.aaaaaaaa. ",
  "  ............aaaaaa.a. ",
  "  ............aaaaa.aa. ",
  "    ..........aa.bc.aa. ",
  "    ..........a....baa. ",
  "     .........aa..caaa. ",
  "      ........aaa.aaaa. ",
  "        .... .aaaaaaaa. ",
  "         ..  .......... ",
  "                        ",
};
