/* XPM */

static const char *
icon_data[] = {
  /* width height num_colors chars_per_pixel x_hot y_hot */
  "24 24 3 1 0 0",

  /* colors */
  ". s symbol1 c #000000 m black",
  "# s symbol2 c #aaaaaa m white",
  "  s mask c none",

  /* pixels */
  "                        ",
  "                        ",
  "                  ..... ",
  "                 ...... ",
  "                 ...... ",
  "                ....... ",
  "               ........ ",
  "               .......  ",
  "        ............    ",
  "       ..##........     ",
  "      ..####.....       ",
  "     ....####....       ",
  "   .......####...       ",
  "   ........####..       ",
  "  ..........####.       ",
  "  ...........###.       ",
  "  ............#..       ",
  "    ............        ",
  "    ...........         ",
  "     .........          ",
  "      .......           ",
  "        ....            ",
  "         ..             ",
  "                        ",
};
